<?xml version="1.0" encoding="utf-8"?>
<?xml-stylesheet type="text/css" href="../stylesheets/svg.css" ?>
<!-- Generator: Adobe Illustrator 19.1.0, SVG Export Plug-In . SVG Version: 6.00 Build 0)  -->
<svg version="1.1" id="Layer_1" xmlns="http://www.w3.org/2000/svg" xmlns:xlink="http://www.w3.org/1999/xlink" x="0px" y="0px"
	 viewBox="0 0 500 250" style="enable-background:new 0 0 500 250;" xml:space="preserve">
<style type="text/css">
	.st0{font-family:'Georgia-Bold';}
	.st1{font-size:86.1264px;}
	.st2{letter-spacing:-3.7;}
	.st3{letter-spacing:-5.6;}
	.st4{fill:none;stroke:#000000;stroke-width:3.6;stroke-miterlimit:10;}
</style>
<g>
	<path d="M23.6,67v45.7c0,4.4,0.2,7.7,0.7,10c0.5,2.3,1.2,3.9,2.2,5c0.7,0.7,1.9,1.4,3.7,2.1c1.8,0.7,3,1.1,3.7,1.2v4.1H8.7v-4.1
		c0.7-0.1,1.8-0.3,3.4-0.7c1.6-0.4,2.8-1,3.8-1.9c1.1-1,1.8-2.7,2.2-5c0.4-2.3,0.6-5.7,0.6-10V76c0-2.3-0.2-4.1-0.7-5.6
		c-0.4-1.5-1.1-2.7-2-3.6c-1.1-1.1-2.2-1.8-3.4-2.1c-1.2-0.3-2.3-0.5-3.5-0.6v-4.1h26.9l13.5,26.4l9.1-14.4c0.4-1.5,3.5-6.9,3.9-8.9
		c0.4-2-0.9-2.4-0.9-3.1h28.7v4.1c-0.9,0.1-1.8,0.2-2.8,0.4c-1,0.2-1.9,0.5-2.8,0.8c-1.1,0.5-1.8,1.2-2.1,2.2
		c-0.3,1-0.5,2.1-0.5,3.3V124c0,1.3,0.2,2.3,0.5,3.2c0.3,0.9,1,1.6,2.1,2.2c0.5,0.3,1.4,0.6,2.7,0.9c1.2,0.3,2.2,0.5,2.9,0.6v4.1
		H58.8v-4.1c0.9-0.1,2.1-0.3,3.4-0.5c1.4-0.2,2.3-0.5,2.8-0.8c1-0.5,1.7-1.3,2.2-2.2s0.7-2.1,0.7-3.5V67.8l-18.2,33.8L23.6,67z"/>
	<path d="M200.7,126.3c-4.7,0-9.1-0.6-13.1-1.7s-10.3-7.9-13.1-9.4l-3.7,3.7h-4.6l-0.7-27.1h4.7c1,2.6,2.4,5.3,4,8.2
		c1.6,2.9,3.5,5.4,5.6,7.7c2.2,2.4,7.4,9.7,10.2,11.2s5.9,2.2,9.6,2.2c4.9,0,8.7-1.2,11.3-3.5c2.6-2.3,3.9-5.3,3.9-8.9
		c0-2.9-1.1-5.4-3.3-7.4c-2.2-2-5.7-3.7-10.3-5.2c-3-1-5.8-1.8-8.4-2.7c-2.5-0.8-4.9-1.6-7.2-2.5c-5.2-2-9-4.9-11.5-8.6
		c-2.5-3.7-3.8-7.9-3.8-12.6c0-2.9,0.6-5.7,1.9-8.5c1.3-2.7,3.2-5.1,5.7-7.3c2.4-2,5.4-3.7,9.1-4.9c3.7-1.3,7.8-1.9,12.1-1.9
		c4.3,0,8.2,0.6,12,1.7c3.7,1.2,6.6,2.3,8.8,3.5l3.3-3.2h4.7l0.4,25.6h-4.7c-1.1-2.8-2.4-5.6-3.8-8.5c-1.5-2.9-3-5.3-4.6-7.2
		c-1.8-2.1-3.8-3.7-6.1-4.9c-2.3-1.2-5-1.8-8.1-1.8c-3.9,0-7.1,1.1-9.6,3.2c-2.5,2.2-3.7,4.8-3.7,8c0,3,1.1,5.5,3.2,7.4
		c2.1,1.9,5.5,3.6,10,5c2.7,0.9,5.4,1.8,8.2,2.7c2.8,0.9,5.3,1.7,7.4,2.5c5.2,2,9.2,4.7,11.9,8.2c2.7,3.5,4.1,7.8,4.1,13
		c0,3.3-0.8,6.4-2.3,9.4c-1.6,3-3.6,5.6-6.3,7.6c-2.9,2.2-6.2,3.9-10,5.1S205.8,126.3,200.7,126.3z"/>
	<path d="M330.6,143h-41.5v-6.2c0.9-0.1,2.2-0.3,4-0.5c1.7-0.2,2.9-0.5,3.6-1c1.3-0.8,2.3-1.8,2.8-3.1c0.5-1.3,0.8-2.9,0.8-5V88.5
		h-32.8v37.9c0,1.8,0.3,3.4,0.8,4.8c0.5,1.4,1.4,2.5,2.7,3.3c0.7,0.4,1.9,0.9,3.5,1.3c1.7,0.5,3,0.8,4.1,0.9v6.2h-41.5v-6.2
		c0.9-0.1,2.2-0.2,4-0.5s3-0.6,3.8-1.1c1.3-0.7,2.2-1.7,2.7-3.1c0.5-1.4,0.8-3.1,0.8-5V47.4c0-1.9-0.2-3.4-0.7-4.7
		c-0.5-1.3-1.4-2.4-2.8-3.3c-1-0.7-2.4-1.3-4.1-1.9c-1.7-0.6-2.9-0.9-3.7-1v-6.2h41.5v6.2c-1.1,0.1-2.5,0.4-4,0.8
		c-1.6,0.4-2.7,0.8-3.6,1.2c-1.4,0.7-2.3,1.8-2.8,3.3c-0.5,1.5-0.7,3.1-0.7,4.8v33.7h32.8V47.4c0-1.9-0.2-3.4-0.7-4.7
		c-0.5-1.3-1.4-2.4-2.8-3.3c-0.9-0.6-2.2-1.2-3.8-1.8c-1.6-0.6-2.8-0.9-3.8-1.1v-6.2h41.5v6.2c-1.2,0.1-2.5,0.3-3.9,0.7
		c-1.4,0.3-2.7,0.8-3.9,1.3c-1.4,0.7-2.3,1.8-2.8,3.3c-0.5,1.5-0.7,3.1-0.7,4.8v79.8c0,1.9,0.2,3.5,0.7,4.8c0.5,1.3,1.4,2.4,2.8,3.3
		c0.9,0.5,2.1,1,3.8,1.4c1.6,0.4,3,0.7,4,0.8V143z"/>
	<path d="M388.3,74.9c0,4.2-0.7,7.9-2.1,10.9c-1.4,3.1-3.4,5.5-5.8,7.4c-2.6,2-5.5,3.4-8.8,4.3s-11.9,1.3-16,1.3v4.7l2.8,24.2
		c0,1.3,0.2,2.4,0.6,3.3c0.4,0.9,1.1,1.7,2.2,2.2c0.6,0.3,1.5,0.6,2.8,0.9c1.3,0.3,2.4,0.5,3.2,0.6v4.1h-32.8v-4.1
		c0.8-0.1,1.9-0.3,3.3-0.4s2.3-0.4,2.9-0.7c1.1-0.6,1.8-1.3,2.2-2.1c0.4-0.8,0.5-1.9,0.5-3.4l-2.8-60.7c0-1.2-0.2-2.3-0.5-3.2
		c-0.3-0.9-1.1-1.6-2.2-2.2c-0.8-0.4-1.9-0.8-3.2-1.1c-1.3-0.3-2.3-0.6-3-0.7v-4.1H365c7.8,0,13.7,1.5,17.5,4.6
		C386.4,63.8,388.3,68.5,388.3,74.9z M371.7,77.6c0-5.6-0.9-9.8-2.8-12.6c-1.8-2.7-5.1-4.1-9.8-4.1h-3.5v33h1.8
		c4.7,0,8.2-1.3,10.6-4C370.5,87.2,371.7,83.1,371.7,77.6z"/>
	<path d="M427.6,140.6H385v-4.1c1-0.1,2.4-0.2,4.3-0.3c1.9-0.1,3.2-0.4,3.9-0.6c1.3-0.5,2.2-1.2,2.7-2.1c0.5-0.9,0.7-2,0.7-3.3V60.5
		c0-1.2-0.2-2.3-0.7-3.2c-0.5-0.9-1.4-1.7-2.8-2.2c-0.9-0.4-2.1-0.7-3.8-1.1s-3.2-0.6-4.4-0.8v-4.1h42.6v4.1
		c-1.1,0.1-2.4,0.3-4.1,0.4c-1.6,0.2-3,0.5-4.1,0.8c-1.4,0.5-2.3,1.2-2.8,2.1c-0.5,1-0.7,2.1-0.7,3.3v69.5c0,1.3,0.2,2.4,0.7,3.3
		c0.5,0.9,1.4,1.6,2.8,2.2c0.8,0.3,2,0.6,3.8,0.9c1.8,0.3,3.2,0.5,4.4,0.6V140.6z"/>
	<path d="M479.7,84h-3c-0.8-3.2-2-6.7-3.8-10.3c-1.7-3.7-3.3-5.6-4.8-5.9c-0.8-0.1-1.8-0.3-3-0.4c-1.2-0.1-2.2-0.2-3.1-0.2h-1.8
		v58.9c0,1.3,0.2,2.4,0.5,3.4c0.3,1,1,1.7,1.9,2.3c0.6,0.3,1.5,0.6,2.7,1c1.2,0.3,2.3,0.6,3.1,0.7v4.1h-30v-4.1
		c0.7-0.1,1.8-0.3,3.1-0.4s2.2-0.4,2.7-0.7c1-0.6,1.6-1.3,2-2.3c0.3-1,0.5-2.1,0.5-3.4V67.2h-1.8c-0.9,0-1.9,0.1-3.1,0.2
		c-1.2,0.1-2.2,0.2-3,0.4c-1.5,0.3-3.1,2.3-4.8,5.9c-1.7,3.7-3,7.1-3.8,10.3h-3V62.5h52.1V84z"/>
</g>
<text transform="matrix(1.0673 0 0 1 201.758 212.0188)"><tspan x="0" y="0" class="st0 st1 st2">C</tspan><tspan x="57.5" y="0" class="st0 st1 st3">OD</tspan><tspan x="187.5" y="0" class="st0 st1">E</tspan></text>
<g class="mosh">
<path class="st4 circle" d="M90.8,103.5c-5.9-21.6,6.1-43.6,26.7-49.2s42,7.4,47.9,29"/>
<path class="st4 circle" d="M148.4,70.1c12.6,13.7,12.1,34.5-0.9,46.5s-33.8,10.6-46.4-3.1"/>
<path class="st4 circle" d="M123.5,105.1c-11.2-5.9-15.7-19.2-10.1-29.9s19.2-14.6,30.4-8.7"/>
<path class="st4 circle" d="M140.9,94.6c1.2,10.4-5.9,19.7-15.7,20.9s-18.9-6.4-20.1-16.7"/>
</g>
<g>
	<path d="M43,196.9c-1.7-1.7-2.4-3.3-2.8-5.3c-5,3.2-10.4,7.5-14.5,7.5c-8,0-13.9-6.9-13.9-14.5c0-5.6-0.6-6.8,3.3-12.7
		c5.7-8.7,13.7-10,23.2-8.5v-1.7c0-8.7-2.7-11.7-8.9-11.7c-2.5,0-4.5,1-5.6,2.4c-1.5,1.7-2.4,4.1-3.6,7.5c-0.4,1.8-1.7,2.5-3.3,2.5
		c-1.9,0-4.8-2.2-4.8-5c0-1.7,1.1-3.3,2.5-5.8c3.2-6.2,10.2-11.5,19.3-8.9c4.3,1.4,6.5,2.8,8.9,5c3.8,3.4,5.1,8.1,5.1,14.1v35.7
		L43,196.9z M39.9,169.3l-11.8,1.2c-5.8,1.3-7.3,8.3-7.3,12.7c0,6,4.8,8.9,8.7,8.9c3.3,0,8.1-2.5,10.4-4.7V169.3z"/>
	<path d="M96,203.6v-3.3c15.2-1.1,11.4-1.4,11.4-9.7v-19.5c0-8.3-3.9-13.9-15.7-13.9c-7.1,0-14.1,3.2-19.2,6.6V191
		c0,8.3,0.9,8.5,11.4,9.3v3.3H48.8v-3.3c11.2-0.8,12.1-1.5,12.1-9.2v-23.9c0-7.6-1.1-8.1-10.2-9.2V155c7.8-1,15.3-2.4,21.7-4.8v9.4
		c3.2-1.8,6.8-3.4,11-5.3c4.5-2.2,9.3-3.7,14.1-3.7c13,0,21.4,6.5,21.4,17.8V191c0,8.1,0.9,8.5,10.9,9.3v3.3H96z"/>
	<path d="M145.5,206.1c-9.4,0-21.5-8.7-21.5-25.2c0-16.4,15-23.5,30.7-23.5c1.8,0,1.7,0.4,2.2,1v-16.2c0-7.9-0.5-8.1-9.4-8.7v-3.2
		c6-0.9,13.7-2.8,17.8-4.2l-0.5,64.3c0,6,0.9,6.6,5.2,6.9l4.1,0.4v3.3c-2.5,0.5-11.2,2-17.7,4.5L145.5,206.1z M156.8,167.5
		c0-3.8-2.2-5.3-6.7-5.3c-5.9,0-16,4.7-16,21.4c0,13.9,8,15.2,16,15.2c4.5,0,6.4,0,6.2-4.8L156.8,167.5z"/>
</g>

</svg>
